<?xml version="1.0" encoding="UTF-8"?>
<svg xmlns="http://www.w3.org/2000/svg" xmlns:xlink="http://www.w3.org/1999/xlink" viewBox="0 0 500 500">
  <defs>
    <style>
      .cls-1 {
        fill: #fff;
      }

      .cls-2 {
        isolation: isolate;
      }

      .cls-3 {
        fill: #ffc522;
      }

      .cls-4 {
        clip-path: url(#clippath);
      }

      .cls-5 {
        fill: none;
      }

      .cls-6 {
        fill: #ffb522;
      }

      .cls-7 {
        fill: #d4d2f4;
      }

      .cls-8 {
        fill: #4c0700;
      }

      .cls-9 {
        mix-blend-mode: multiply;
      }

      .cls-10 {
        fill: #ffda70;
      }

      .cls-11 {
        fill: #ff2b06;
      }
    </style>
    <clipPath id="clippath">
      <path class="cls-5" d="M251.42,309.99c17.37,0,28.66,2.9,30.11-8.98,1.45-11.87-12.74-20.27-30.11-20.27s-31.56,8.4-30.11,20.27c1.45,11.87,12.74,8.98,30.11,8.98Z"/>
    </clipPath>
  </defs>
  <g class="cls-2">
    <g id="OBJECTS">
      <g>
        <g>
          <circle class="cls-3" cx="250" cy="250" r="87.96" transform="translate(-103.55 250) rotate(-45)"/>
          <path class="cls-6" d="M250,319.31c-45.43,0-82.81-34.44-87.46-78.63-.32,3.06-.49,6.17-.49,9.32,0,48.58,39.38,87.96,87.96,87.96s87.96-39.38,87.96-87.96c0-3.15-.17-6.26-.49-9.32-4.66,44.19-42.04,78.63-87.46,78.63Z"/>
          <path class="cls-10" d="M250,179.31c45.66,0,83.2,34.8,87.53,79.32,.28-2.84,.42-5.72,.42-8.63,0-48.58-39.38-87.96-87.96-87.96s-87.96,39.38-87.96,87.96c0,2.91,.15,5.79,.42,8.63,4.34-44.52,41.87-79.32,87.53-79.32Z"/>
          <path class="cls-8" d="M338.96,250c-.04-18.42-5.77-36.6-16.49-51.6-10.41-14.56-25.1-25.8-41.91-31.96s-36.98-7.11-54.91-2.02-32.96,15.2-44.37,29.1-18.54,31.39-19.96,49.49,2.97,37.26,12.6,53.11,23.16,27.61,39.44,34.96,36.17,9.78,54.42,6.1c17.71-3.58,34.14-12.72,46.6-25.8,12.43-13.04,20.76-29.81,23.51-47.62,.7-4.55,1.05-9.15,1.06-13.76,0-1.29-2-1.29-2,0-.04,17.99-5.62,35.65-16.03,50.32-10.13,14.28-24.61,25.37-41.06,31.37s-36.14,6.94-53.69,1.96c-16.9-4.8-32.09-14.81-43.28-28.33s-18.29-30.92-19.61-48.68,2.95-36.28,12.36-51.76c9.08-14.94,22.65-26.95,38.57-34.17,16.54-7.5,35.42-9.56,53.2-5.93,17.29,3.53,33.25,12.38,45.44,25.13,12.19,12.74,20.3,29.1,23.05,46.52,.71,4.48,1.04,9.02,1.05,13.56,0,1.29,2,1.29,2,0Z"/>
        </g>
        <g>
          <circle class="cls-1" cx="208.93" cy="249.22" r="29.87"/>
          <g>
            <path class="cls-8" d="M214.53,225.6h0c1.56-2.39,5.27-1.4,5.42,1.45h0c.11,2.13,2.38,3.44,4.28,2.47h0c2.55-1.29,5.26,1.42,3.97,3.97h0c-.97,1.9,.34,4.17,2.47,4.28h0c2.85,.15,3.84,3.86,1.45,5.42h0c-1.79,1.16-1.79,3.78,0,4.95h0c2.39,1.56,1.4,5.27-1.45,5.42h0c-2.13,.11-3.44,2.38-2.47,4.28h0c1.29,2.55-1.42,5.26-3.97,3.97h0c-1.9-.97-4.17,.34-4.28,2.47h0c-.15,2.85-3.86,3.84-5.42,1.45h0c-1.16-1.79-3.78-1.79-4.95,0h0c-1.56,2.39-5.27,1.4-5.42-1.45h0c-.11-2.13-2.38-3.44-4.28-2.47h0c-2.55,1.29-5.26-1.42-3.97-3.97h0c.97-1.9-.34-4.17-2.47-4.28h0c-2.85-.15-3.84-3.86-1.45-5.42h0c1.79-1.16,1.79-3.78,0-4.95h0c-2.39-1.56-1.4-5.27,1.45-5.42h0c2.13-.11,3.44-2.38,2.47-4.28h0c-1.29-2.55,1.42-5.26,3.97-3.97h0c1.9,.97,4.17-.34,4.28-2.47h0c.15-2.85,3.86-3.85,5.42-1.45h0c1.16,1.79,3.78,1.79,4.95,0Z"/>
            <path class="cls-1" d="M208.78,239.11c.18-.97,1.11-1.77,.96-2.75-.04-.29-.18-.56-.35-.8-1.06-1.62-3.18-2.45-5.06-2.02-.4,0-.81,.08-1.17,.27-.8,.41-1.36,1.25-1.44,2.14-.06,.79,.19,1.71-.33,2.31-.36,.41-.96,.49-1.47,.71-1.14,.49-1.83,1.79-1.74,3.03,.09,1.24,.88,2.37,1.94,3.01,1.06,.65,2.35,.84,3.59,.7,1.32-.15,2.61-.69,3.57-1.61s1.56-2.24,1.51-3.57c-.02-.47-.11-.95-.03-1.41Z"/>
            <path class="cls-1" d="M207.82,246.74c-1.36,1.07-3.09,1.65-4.82,1.61-.91-.02-2.01-.12-2.52,.62-.26,.38-.27,.87-.26,1.33,.01,.43,.04,.87,.22,1.26,.21,.48,.61,.84,1.05,1.12,1.52,.98,3.56,1.05,5.21,.28,1.64-.77,2.86-2.33,3.34-4.08,.27-.99,.19-2.29-.74-2.74-.85-.41-1.83,.18-2.51,.83-.67,.66-1.33,1.46-2.26,1.6"/>
          </g>
          <g class="cls-9">
            <path class="cls-7" d="M208.93,219.35c-16.49,0-29.87,13.37-29.87,29.87,0,.37,.01,.73,.03,1.1,9.25-7.03,20.1-11.95,31.49-14.21,8.14-1.61,16.54-1.86,24.77-.8-5-9.49-14.96-15.96-26.43-15.96Z"/>
          </g>
          <path class="cls-8" d="M239.79,249.22c-.07-12.84-8.16-24.5-20.21-28.98-12.13-4.5-26.26-.65-34.46,9.33s-9.35,24.49-2.62,35.6c6.7,11.05,19.88,16.82,32.55,14.3,12.48-2.48,22.47-12.9,24.37-25.49,.24-1.58,.36-3.17,.37-4.77,0-1.29-1.99-1.29-2,0-.07,11.96-7.61,22.99-18.9,27.1-11.38,4.15-24.37,.65-32.15-8.62-7.82-9.32-8.81-23.03-2.52-33.43s18.63-15.77,30.45-13.35c11.67,2.39,20.85,11.97,22.76,23.72,.25,1.51,.35,3.05,.36,4.58,0,1.29,2.01,1.29,2,0Z"/>
        </g>
        <g>
          <circle class="cls-1" cx="294.86" cy="249.22" r="29.87"/>
          <g>
            <path class="cls-8" d="M281.79,263.27h0c-.17,2.85,3.4,4.26,5.22,2.05h0c1.36-1.65,3.96-1.35,4.91,.56h0c1.28,2.55,5.08,1.98,5.55-.83h0c.35-2.1,2.75-3.15,4.53-1.97h0c2.38,1.57,5.39-.82,4.39-3.49h0c-.75-2,.81-4.1,2.94-3.98h0c2.85,.17,4.26-3.4,2.05-5.22h0c-1.65-1.36-1.35-3.96,.56-4.91h0c2.55-1.28,1.98-5.08-.83-5.55h0c-2.1-.35-3.15-2.75-1.97-4.53h0c1.57-2.38-.82-5.39-3.49-4.39h0c-2,.75-4.1-.81-3.98-2.94h0c.17-2.85-3.4-4.26-5.22-2.05h0c-1.36,1.65-3.96,1.35-4.91-.56h0c-1.28-2.55-5.08-1.98-5.55,.83h0c-.35,2.1-2.75,3.15-4.53,1.97h0c-2.38-1.57-5.39,.82-4.39,3.49h0c.75,2-.81,4.1-2.94,3.98h0c-2.85-.17-4.26,3.4-2.05,5.22h0c1.65,1.36,1.35,3.96-.56,4.91h0c-2.55,1.28-1.98,5.08,.83,5.55h0c2.1,.35,3.15,2.75,1.97,4.53h0c-1.57,2.38,.82,5.39,3.49,4.39h0c2-.75,4.1,.81,3.98,2.94Z"/>
            <path class="cls-1" d="M285.19,248.99c-.43,.88-.16,2.09-.86,2.78-.21,.21-.48,.34-.75,.44-1.82,.67-4.01,.08-5.27-1.38-.32-.24-.6-.55-.78-.91-.4-.8-.36-1.81,.12-2.58,.42-.68,1.17-1.26,1.11-2.05-.05-.55-.48-.97-.76-1.44-.63-1.07-.41-2.52,.4-3.47,.81-.94,2.12-1.38,3.35-1.27,1.24,.11,2.39,.73,3.3,1.57,.97,.91,1.69,2.11,1.91,3.42,.22,1.31-.08,2.72-.9,3.76-.29,.37-.65,.69-.86,1.12Z"/>
            <path class="cls-1" d="M288.95,242.28c-.45-1.67-1.5-3.17-2.92-4.16-.74-.52-1.69-1.09-1.65-2,.02-.46,.3-.86,.58-1.22,.27-.34,.55-.67,.92-.89,.45-.26,.99-.31,1.51-.28,1.81,.12,3.49,1.27,4.35,2.87,.86,1.6,.92,3.58,.26,5.27-.37,.96-1.21,1.95-2.22,1.76-.92-.18-1.37-1.23-1.52-2.16-.15-.93-.2-1.96-.87-2.63"/>
          </g>
          <g class="cls-9">
            <path class="cls-7" d="M294.86,219.35c16.49,0,29.87,13.37,29.87,29.87,0,.37-.01,.73-.03,1.1-9.25-7.03-20.1-11.95-31.49-14.21-8.14-1.61-16.54-1.86-24.77-.8,5-9.49,14.96-15.96,26.43-15.96Z"/>
          </g>
          <path class="cls-8" d="M265.99,249.22c.07-11.96,7.61-22.99,18.9-27.1s24.37-.65,32.15,8.62c7.82,9.32,8.81,23.03,2.52,33.43s-18.63,15.77-30.45,13.35c-11.67-2.39-20.85-11.97-22.76-23.72-.25-1.51-.35-3.05-.36-4.58,0-1.29-2.01-1.29-2,0,.07,12.84,8.16,24.5,20.21,28.98,12.13,4.5,26.26,.65,34.46-9.33s9.35-24.49,2.62-35.6-19.88-16.82-32.55-14.3c-12.48,2.48-22.47,12.9-24.37,25.49-.24,1.58-.36,3.17-.37,4.77,0,1.29,1.99,1.29,2,0Z"/>
        </g>
        <g class="cls-4">
          <path class="cls-8" d="M251.42,309.99c17.37,0,28.66,2.9,30.11-8.98,1.45-11.87-12.74-20.27-30.11-20.27s-31.56,8.4-30.11,20.27c1.45,11.87,12.74,8.98,30.11,8.98Z"/>
          <g>
            <path class="cls-11" d="M218.45,310.01c9.95-9.67,24.16-14.78,37.99-13.66,13.83,1.13,27.03,8.47,35.28,19.62"/>
            <path class="cls-8" d="M219.16,310.72c7.79-7.51,18.13-12.26,28.9-13.3,10.43-1,20.92,1.6,29.79,7.13,5.02,3.13,9.47,7.18,13.01,11.93,.76,1.02,2.5,.02,1.73-1.01-6.54-8.76-15.85-15.23-26.34-18.31s-22.41-2.41-32.76,1.87c-5.84,2.42-11.19,5.88-15.74,10.27-.93,.9,.49,2.31,1.41,1.41h0Z"/>
          </g>
          <path class="cls-1" d="M277.61,303.25c-17.02,.57-34.06,.72-51.09,.46-1.55-.02-3.1-.05-4.65-.08,.3,.95,.69,1.76,1.18,2.47,4,5.82,14.15,3.88,28.37,3.88,15.02,0,25.49,2.16,28.99-4.93,.28-.58,.53-1.21,.72-1.92-1.17,.04-2.35,.08-3.52,.12Z"/>
          <path class="cls-8" d="M213.49,304.45c20.77,.57,41.55,.53,62.31-.13,5.87-.19,11.74-.42,17.61-.7,1.28-.06,1.29-2.06,0-2-20.75,1-41.53,1.39-62.3,1.17-5.88-.06-11.75-.18-17.63-.34-1.29-.04-1.29,1.96,0,2h0Z"/>
          <path class="cls-1" d="M272.52,285.8c-5.47-3.2-12.93-5.06-21.1-5.06-7.17,0-13.8,1.44-19.01,3.95,12.67,4.15,26.65,3.69,40.1,1.11Z"/>
          <path class="cls-8" d="M224.47,282.49c14.05,7.03,30.15,7.35,45.37,4.8,4.4-.74,8.75-1.72,13.06-2.86,1.24-.33,.72-2.26-.53-1.93-14.48,3.85-30.05,6.04-44.83,2.59-4.18-.97-8.23-2.41-12.07-4.33-1.15-.57-2.16,1.15-1.01,1.73h0Z"/>
        </g>
        <path class="cls-8" d="M251.42,310.99c6,0,12.03,.55,18.02,.24,3.79-.19,8.14-.81,10.7-3.93,2.69-3.26,3.09-8.36,1.8-12.26-1.57-4.76-5.51-8.29-9.82-10.61-5.52-2.97-11.84-4.32-18.06-4.62-6.55-.33-13.32,.47-19.46,2.85-4.8,1.86-9.52,4.78-12.27,9.27-2.35,3.85-2.82,8.78-1.07,12.97,1.54,3.68,4.95,5.42,8.74,6,5.35,.82,10.89,.3,16.28,.16,1.71-.04,3.43-.07,5.14-.07,1.29,0,1.29-2,0-2-5.63,0-11.26,.44-16.89,.29-3.38-.09-7.54-.32-10.03-2.94s-2.8-7.49-1.64-10.89c1.49-4.36,5.33-7.47,9.29-9.52,5.16-2.67,11.06-3.87,16.82-4.13,6.1-.28,12.32,.44,18.08,2.55,4.5,1.65,9.06,4.33,11.65,8.48,2.14,3.42,2.64,8,.86,11.7s-6.09,4.48-9.85,4.69c-6.08,.35-12.21-.22-18.3-.23-1.29,0-1.29,2,0,2Z"/>
        <path class="cls-8" d="M197.59,222.53c13.41-4.33,25.77-11.54,36.14-21.08,.95-.87-.47-2.29-1.41-1.41-10.11,9.31-22.18,16.35-35.25,20.57-1.22,.39-.7,2.33,.53,1.93h0Z"/>
        <path class="cls-8" d="M237.19,200.98c-.07,.22-.14,.44-.22,.65-.02,.05-.04,.09-.06,.14,0,0-.1,.23-.04,.09,.06-.12-.02,.03-.03,.06-.03,.06-.05,.12-.08,.17-.2,.41-.42,.82-.67,1.2-.12,.18-.24,.36-.37,.53-.07,.09-.06,.12,0,.01-.02,.04-.07,.08-.1,.12-.07,.09-.15,.18-.22,.26-.31,.36-.64,.69-1,1-.39,.35-.38,1.07,0,1.41,.42,.39,.99,.37,1.41,0,1.55-1.36,2.69-3.16,3.29-5.12,.15-.5-.18-1.11-.7-1.23-.54-.12-1.06,.16-1.23,.7h0Z"/>
        <path class="cls-8" d="M298.54,218.47c-10.33-2.47-21.15-5.06-29.66-11.78-1-.79-2.42,.62-1.41,1.41,8.82,6.96,19.82,9.74,30.54,12.3,1.25,.3,1.79-1.63,.53-1.93h0Z"/>
        <path class="cls-8" d="M260.55,209.14c1.11,.94,2.22,1.89,3.33,2.83,.21,.17,.43,.29,.71,.29,.25,0,.54-.11,.71-.29,.34-.37,.43-1.05,0-1.41-1.11-.94-2.22-1.89-3.33-2.83-.21-.17-.43-.29-.71-.29-.25,0-.54,.11-.71,.29-.34,.37-.43,1.05,0,1.41h0Z"/>
      </g>
    </g>
  </g>
</svg>