<?xml version="1.0" encoding="UTF-8"?>
<svg id="OBJECTS" xmlns="http://www.w3.org/2000/svg" viewBox="0 0 500 500">
  <defs>
    <style>
      .cls-1 {
        fill: #ffc522;
      }

      .cls-2 {
        fill: #928fc9;
      }

      .cls-3 {
        fill: #fffbe8;
      }

      .cls-4 {
        fill: #ccc9ff;
      }

      .cls-5 {
        fill: #ffb522;
      }

      .cls-6 {
        fill: #4c0700;
      }

      .cls-7 {
        fill: #ffda70;
      }
    </style>
  </defs>
  <g>
    <circle class="cls-1" cx="348.03" cy="305.82" r="87.96" transform="translate(-114.31 335.67) rotate(-45)"/>
    <path class="cls-5" d="M348.03,375.13c-45.43,0-82.81-34.44-87.46-78.63-.32,3.06-.49,6.17-.49,9.32,0,48.58,39.38,87.96,87.96,87.96s87.96-39.38,87.96-87.96c0-3.15-.17-6.26-.49-9.32-4.66,44.19-42.04,78.63-87.46,78.63Z"/>
    <path class="cls-7" d="M348.03,235.13c45.66,0,83.2,34.8,87.53,79.32,.28-2.84,.42-5.72,.42-8.63,0-48.58-39.38-87.96-87.96-87.96s-87.96,39.38-87.96,87.96c0,2.91,.15,5.79,.42,8.63,4.34-44.52,41.87-79.32,87.53-79.32Z"/>
    <path class="cls-6" d="M436.99,305.82c-.04-18.42-5.77-36.6-16.49-51.6-10.41-14.56-25.1-25.8-41.91-31.96-17.5-6.42-36.98-7.11-54.91-2.02-17.31,4.91-32.96,15.2-44.37,29.1-11.52,14.03-18.54,31.39-19.96,49.49-1.45,18.49,2.97,37.26,12.6,53.11,9.27,15.26,23.16,27.61,39.44,34.96,16.97,7.66,36.17,9.78,54.42,6.1,17.71-3.58,34.14-12.72,46.6-25.8,12.43-13.04,20.76-29.81,23.51-47.62,.7-4.55,1.05-9.15,1.06-13.76,0-1.29-2-1.29-2,0-.04,17.99-5.62,35.65-16.03,50.32-10.13,14.28-24.61,25.37-41.06,31.37-17.14,6.25-36.14,6.94-53.69,1.96-16.9-4.8-32.09-14.81-43.28-28.33-11.35-13.72-18.29-30.92-19.61-48.68-1.34-18.05,2.95-36.28,12.36-51.76,9.08-14.94,22.65-26.95,38.57-34.17,16.54-7.5,35.42-9.56,53.2-5.93,17.29,3.53,33.25,12.38,45.44,25.13,12.19,12.74,20.3,29.1,23.05,46.52,.71,4.48,1.04,9.02,1.05,13.56,0,1.29,2,1.29,2,0Z"/>
  </g>
  <path class="cls-3" d="M389.24,366.85c-4.5-4.75-11.65-6.88-17.81-8.39-13.64-3.35-27.61-3.68-41.4-1.15-6.85,1.26-14.2,3.04-20.07,6.96-4.27,2.85-7.84,7.96-5.22,13.18,2.56,5.12,9.83,1.54,13.47-.09,7.65-3.43,15.09-7.52,23.39-9.2,2.12-.43,4.26-.67,6.43-.68,8.75,.05,16.96,3.83,24.72,7.5,3.2,1.51,6.4,3.14,9.77,4.26,2.1,.7,4.73,1.37,6.82,.28,2.1-1.1,2.82-3.74,2.82-5.95,0-2.56-1.19-4.89-2.93-6.72Z"/>
  <g>
    <path class="cls-6" d="M285.92,338.87c7.88-1.71,15.94-2.1,23.94-2.88,7.35-.72,15.28-1.53,21.98-4.87,2.93-1.46,7.24-4.17,6.38-8.02-.28-1.26-2.21-.72-1.93,.53,.49,2.22-2.37,3.99-3.97,4.95-1.88,1.13-3.92,1.92-6.01,2.55-4.35,1.3-8.88,2.01-13.39,2.53-9.18,1.06-18.47,1.31-27.53,3.28-1.26,.27-.73,2.2,.53,1.93h0Z"/>
    <path class="cls-6" d="M340.31,323.29c.04,.18,.11,.39,.11,.58,0-.25,.01,.11,.01,.16,0,.08,.01,.17,.02,.25,.02,.4,.01,.79-.03,1.19,0,.09-.02,.25,0,.07,0,.11-.04,.23-.06,.34-.04,.19-.08,.39-.14,.58-.05,.19-.11,.38-.18,.57-.03,.08-.06,.16-.09,.24,.09-.22-.05,.11-.07,.15-.22,.47-.15,1.1,.36,1.37,.44,.23,1.13,.15,1.37-.36,.84-1.78,1.07-3.74,.63-5.66-.12-.51-.73-.86-1.23-.7-.53,.17-.82,.68-.7,1.23h0Z"/>
    <path class="cls-6" d="M356.9,323.2c.34,3.12,.9,6.41,3.65,8.32,.68,.47,1.45-.17,1.5-.86,.22-2.65,1.22-5.08,2.83-7.17-.62-.17-1.24-.34-1.86-.5,.07,3.74,2.61,6.88,5.84,8.55,3.92,2.03,8.5,2.02,12.79,2.31,10.22,.7,20.35,2.19,30.47,3.68,1.26,.19,1.8-1.74,.53-1.93-9.16-1.35-18.32-2.71-27.55-3.49-4.28-.36-8.81-.2-12.96-1.42-3.52-1.03-7.06-3.73-7.13-7.71-.02-1.07-1.29-1.25-1.86-.5-1.84,2.39-2.86,5.19-3.11,8.18,.5-.29,1-.58,1.5-.86-2.07-1.44-2.41-4.29-2.66-6.6-.14-1.27-2.14-1.28-2,0h0Z"/>
  </g>
  <g>
    <path class="cls-6" d="M335.91,345.8c-.02-.2-.07-.39-.14-.58-.04-.25-.13-.48-.29-.69-.15-.19-.33-.34-.54-.46-.59-.49-1.36-.74-2.08-.48-13.25-1.14-26.64,1.17-39.88-.11-.37-.04-.78-.07-1.09,.14-.55,.36-.46,1.25,0,1.71,.46,.46,1.15,.6,1.79,.72-.98,.28-1.96,.56-2.94,.84,3.63,2.86,8.41,3.75,13.01,4.23,8.61,.91,17.34,.74,25.9-.51,1.44-.21,2.92-.47,4.16-1.22,1.24-.76,2.22-2.14,2.08-3.59Z"/>
    <path class="cls-6" d="M360.15,345.8c.02-.2,.07-.39,.14-.58,.04-.25,.13-.48,.29-.69,.15-.19,.33-.34,.54-.46,.59-.49,1.36-.74,2.08-.48,13.25-1.14,26.64,1.17,39.88-.11,.37-.04,.78-.07,1.09,.14,.55,.36,.46,1.25,0,1.71-.46,.46-1.15,.6-1.79,.72,.98,.28,1.96,.56,2.94,.84-3.63,2.86-8.41,3.75-13.01,4.23-8.61,.91-17.34,.74-25.9-.51-1.44-.21-2.92-.47-4.16-1.22-1.24-.76-2.22-2.14-2.08-3.59Z"/>
  </g>
  <path class="cls-6" d="M389.24,366.85c-4.5-4.75-11.65-6.88-17.81-8.39-13.64-3.35-27.61-3.68-41.4-1.15-6.85,1.26-14.2,3.04-20.07,6.96-4.27,2.85-7.84,7.96-5.22,13.18,2.56,5.12,9.83,1.54,13.47-.09,7.65-3.43,15.09-7.52,23.39-9.2,2.12-.43,4.26-.67,6.43-.68,8.75,.05,16.96,3.83,24.72,7.5,3.2,1.51,6.4,3.14,9.77,4.26,2.1,.7,4.73,1.37,6.82,.28,2.1-1.1,2.82-3.74,2.82-5.95,0-2.56-1.19-4.89-2.93-6.72Zm-74.22,9.72c-1.97,.79-4.5,1.9-6.67,1.43-1.94-.43-2.45-2.7-2.45-4.43,0-2.34,1.27-4.33,2.93-5.89,2.79-2.62,6.42-4.32,10.18-5.58v12.63s.01,.05,.02,.08c-1.32,.62-2.65,1.22-4.01,1.76Zm5.99-2.69v-12.4c1.75-.51,3.49-.95,5.17-1.34,2.12-.49,4.25-.91,6.38-1.25v9.88c-2.65,1.01-5.25,2.16-7.8,3.34-1.25,.58-2.5,1.18-3.75,1.78Zm13.55-5.84v-9.45c4.26-.6,8.53-.92,12.82-.95v7.86c-4.4,.12-8.67,1.11-12.82,2.54Zm14.82-2.52v-7.87c4.63,.07,9.26,.47,13.87,1.21v9.81c-3.01-1.13-6.08-2.07-9.25-2.62-1.53-.27-3.07-.45-4.62-.52Zm15.8,3.89c.05-.11,.08-.24,.08-.39v-9.83c3.87,.69,7.83,1.56,11.62,2.87-.04,.1-.07,.21-.07,.34v12.28c-.18-.08-.36-.17-.54-.25-3.65-1.72-7.32-3.5-11.09-5.02Zm24.28,7.32c-.98,1.67-3,1.48-4.65,1.09-2.07-.49-4.06-1.31-6-2.2v-12.83c1.84,.73,3.62,1.57,5.3,2.58,2.12,1.27,4.21,2.9,5.34,5.14,.93,1.84,1.08,4.39,.01,6.22Z"/>
  <g>
    <path class="cls-4" d="M299.49,353.85c0-4.83-3.91-6.37-8.74-6.37s-8.74,1.54-8.74,6.37,3.91,4.82,8.74,4.82,8.74,0,8.74-4.82Z"/>
    <g>
      <path class="cls-2" d="M300.49,353.85c-.03-1.81-.54-3.58-1.83-4.89-1.2-1.21-2.86-1.87-4.51-2.18-3.48-.65-8.04-.57-10.9,1.81-2.5,2.08-3.25,6.87-.83,9.29,1.15,1.15,2.8,1.5,4.35,1.67,1.9,.2,3.85,.15,5.77,.11,1.85-.03,3.93-.09,5.58-1.05,1.73-1,2.35-2.85,2.37-4.76,.02-1.29-1.98-1.29-2,0-.02,1.2-.27,2.39-1.38,3.04-1.08,.62-2.44,.7-3.66,.75-1.61,.07-3.22,.06-4.83,.02-1.3-.03-2.73-.06-3.93-.61-2.32-1.07-2.08-4.78-.62-6.47,1.88-2.17,5.5-2.23,8.12-2.04,1.54,.11,3.19,.43,4.47,1.34,1.32,.94,1.81,2.41,1.83,3.98,.02,1.29,2.02,1.29,2,0Z"/>
      <path class="cls-3" d="M288.83,351.7c0,1.08-.88,1.47-1.96,1.47s-1.96-.39-1.96-1.47,.88-1.96,1.96-1.96,1.96,.88,1.96,1.96Z"/>
    </g>
  </g>
  <g>
    <path class="cls-4" d="M414.05,353.85c0-4.83-3.91-6.37-8.74-6.37s-8.74,1.54-8.74,6.37,3.91,4.82,8.74,4.82,8.74,0,8.74-4.82Z"/>
    <g>
      <path class="cls-2" d="M415.05,353.85c-.03-1.81-.54-3.58-1.83-4.89-1.2-1.21-2.86-1.87-4.51-2.18-3.48-.65-8.04-.57-10.9,1.81-2.5,2.08-3.25,6.87-.83,9.29,1.15,1.15,2.8,1.5,4.35,1.67,1.9,.2,3.85,.15,5.77,.11,1.85-.03,3.93-.09,5.58-1.05,1.73-1,2.35-2.85,2.37-4.76,.02-1.29-1.98-1.29-2,0-.02,1.2-.27,2.39-1.38,3.04-1.08,.62-2.44,.7-3.66,.75-1.61,.07-3.22,.06-4.83,.02-1.3-.03-2.73-.06-3.93-.61-2.32-1.07-2.08-4.78-.62-6.47,1.88-2.17,5.5-2.23,8.12-2.04,1.54,.11,3.19,.43,4.47,1.34,1.32,.94,1.81,2.41,1.83,3.98,.02,1.29,2.02,1.29,2,0Z"/>
      <path class="cls-3" d="M403.4,351.7c0,1.08-.88,1.47-1.96,1.47s-1.96-.39-1.96-1.47,.88-1.96,1.96-1.96,1.96,.88,1.96,1.96Z"/>
    </g>
  </g>
</svg>