<?xml version="1.0" encoding="UTF-8"?>
<svg xmlns="http://www.w3.org/2000/svg" viewBox="0 0 500 500">
  <defs>
    <style>
      .cls-1 {
        fill: #fff;
      }

      .cls-2 {
        isolation: isolate;
      }

      .cls-3 {
        fill: #ffc522;
      }

      .cls-4 {
        fill: #ccc9ff;
      }

      .cls-5 {
        fill: #ffb522;
      }

      .cls-6 {
        fill: #d4d2f4;
      }

      .cls-7 {
        fill: #4c0700;
      }

      .cls-8 {
        mix-blend-mode: multiply;
      }

      .cls-9 {
        fill: #ffda70;
      }
    </style>
  </defs>
  <g class="cls-2">
    <g id="OBJECTS">
      <g>
        <g>
          <circle class="cls-3" cx="250" cy="250" r="87.96" transform="translate(-103.55 250) rotate(-45)"/>
          <path class="cls-5" d="M250,319.31c-45.43,0-82.81-34.44-87.46-78.63-.32,3.06-.49,6.17-.49,9.32,0,48.58,39.38,87.96,87.96,87.96s87.96-39.38,87.96-87.96c0-3.15-.17-6.26-.49-9.32-4.66,44.19-42.04,78.63-87.46,78.63Z"/>
          <path class="cls-9" d="M250,179.31c45.66,0,83.2,34.8,87.53,79.32,.28-2.84,.42-5.72,.42-8.63,0-48.58-39.38-87.96-87.96-87.96s-87.96,39.38-87.96,87.96c0,2.91,.15,5.79,.42,8.63,4.34-44.52,41.87-79.32,87.53-79.32Z"/>
          <g>
            <path class="cls-4" d="M212.55,293.4c-4.54-1.59-9.09-3.17-13.63-4.76-.47-.17-.98-.33-1.47-.21-.67,.17-1.08,.82-1.41,1.42-3.96,7.16-6.44,15.12-7.3,23.25,5.59,5.43,11.89,10.12,18.76,13.91-1.06-11.28,1.23-22.91,5.05-33.63Z"/>
            <g>
              <circle class="cls-1" cx="214.07" cy="283.8" r="23.46" transform="translate(-42.99 38.26) rotate(-9.29)"/>
              <g>
                <circle class="cls-7" cx="217.21" cy="282.66" r="16.16" transform="translate(-54.8 52.25) rotate(-12.19)"/>
                <path class="cls-1" d="M215.76,282.31c.96-3.7-1.26-7.47-4.96-8.43-3.7-.96-6.46,1.53-7.41,5.22-.96,3.7,.25,7.21,3.95,8.17,3.7,.96,7.47-1.26,8.43-4.96Z"/>
                <path class="cls-1" d="M209.79,293.6c1.38,.26,2.71-.65,2.97-2.03,.26-1.38-.72-2.33-2.1-2.59s-2.64,.27-2.9,1.66c-.26,1.38,.65,2.71,2.03,2.97Z"/>
              </g>
              <g class="cls-8">
                <path class="cls-6" d="M236.36,276.48c-3.07-9.38-11.89-16.15-22.3-16.15-12.96,0-23.46,10.51-23.46,23.46,0,.11,0,.22,0,.34,11.03-5.84,23.54-8.89,36.02-8.7,3.25,.05,6.55,.34,9.73,1.04Z"/>
              </g>
              <path class="cls-7" d="M238.53,283.8c-.08-10.23-6.52-19.5-16.15-23.01s-20.69-.45-27.15,7.41-7.46,19.5-2.06,28.33,15.66,13.21,25.64,11.28c11.39-2.2,19.64-12.49,19.72-24,0-1.29-1.99-1.29-2,0-.07,9.29-5.89,17.88-14.68,21.08s-19.04,.5-25.1-6.77-6.78-17.83-1.94-25.89,14.56-12.36,23.8-10.43c10.37,2.16,17.84,11.46,17.92,22.01,0,1.29,2.01,1.29,2,0Z"/>
            </g>
            <path class="cls-7" d="M202.16,264.59c6.24-3.19,12.96-5.24,19.39-7.96,3.11-1.32,6.17-2.79,9.01-4.63,1.41-.91,2.79-1.91,4.06-3.02,1.16-1.01,2.16-2.26,2.05-3.88-.09-1.28-2.09-1.29-2,0,.12,1.67-1.97,2.93-3.15,3.81-1.28,.95-2.63,1.81-4.01,2.61-2.77,1.59-5.7,2.89-8.66,4.08-5.92,2.37-12,4.36-17.7,7.27-1.15,.59-.14,2.31,1.01,1.73h0Z"/>
            <path class="cls-7" d="M239.37,245.79c.01,.07,.02,.14,.03,.22l-.04-.27c.06,.49,.06,.98,0,1.47l.04-.27c-.07,.47-.19,.93-.37,1.37-.09,.22-.02,.57,.1,.77s.36,.41,.6,.46c.26,.06,.54,.05,.77-.1s.36-.34,.46-.6c.46-1.14,.54-2.38,.34-3.58-.04-.23-.26-.48-.46-.6-.21-.13-.53-.18-.77-.1s-.48,.23-.6,.46c-.13,.25-.15,.49-.1,.77h0Z"/>
          </g>
          <g>
            <path class="cls-4" d="M288.14,293.4c4.54-1.59,9.09-3.17,13.63-4.76,.47-.17,.98-.33,1.47-.21,.67,.17,1.08,.82,1.41,1.42,3.96,7.16,6.44,15.12,7.3,23.25-5.59,5.43-11.89,10.12-18.76,13.91,1.06-11.28-1.23-22.91-5.05-33.63Z"/>
            <g>
              <circle class="cls-1" cx="286.63" cy="283.8" r="23.46" transform="translate(-113.49 334.79) rotate(-51.98)"/>
              <g>
                <circle class="cls-7" cx="283.48" cy="282.66" r="16.16" transform="translate(-87.21 131.52) rotate(-22.74)"/>
                <path class="cls-1" d="M284.94,282.31c-.96-3.7,1.26-7.47,4.96-8.43,3.7-.96,6.46,1.53,7.41,5.22,.96,3.7-.25,7.21-3.95,8.17-3.7,.96-7.47-1.26-8.43-4.96Z"/>
                <path class="cls-1" d="M290.9,293.6c-1.38,.26-2.71-.65-2.97-2.03-.26-1.38,.72-2.33,2.1-2.59,1.38-.26,2.64,.27,2.9,1.66,.26,1.38-.65,2.71-2.03,2.97Z"/>
              </g>
              <g class="cls-8">
                <path class="cls-6" d="M264.33,276.48c3.07-9.38,11.89-16.15,22.3-16.15,12.96,0,23.46,10.51,23.46,23.46,0,.11,0,.22,0,.34-11.03-5.84-23.54-8.89-36.02-8.7-3.25,.05-6.55,.34-9.73,1.04Z"/>
              </g>
              <path class="cls-7" d="M264.16,283.8c.07-9.29,5.89-17.88,14.68-21.08s19.04-.5,25.1,6.77,6.78,17.83,1.94,25.89-14.56,12.36-23.8,10.43c-10.37-2.16-17.84-11.46-17.92-22.01,0-1.29-2.01-1.29-2,0,.08,10.23,6.52,19.5,16.15,23.01,9.56,3.49,20.69,.45,27.15-7.41,6.55-7.96,7.46-19.5,2.06-28.33s-15.66-13.21-25.64-11.28c-11.39,2.2-19.64,12.49-19.72,24,0,1.29,1.99,1.29,2,0Z"/>
            </g>
            <path class="cls-7" d="M299.54,262.86c-5.69-2.91-11.77-4.9-17.7-7.27-2.96-1.19-5.89-2.49-8.66-4.08-1.38-.79-2.73-1.65-4.01-2.61-1.17-.87-3.27-2.15-3.15-3.81,.09-1.28-1.91-1.28-2,0-.12,1.62,.89,2.87,2.05,3.88,1.27,1.11,2.65,2.1,4.06,3.02,2.84,1.84,5.89,3.31,9.01,4.63,6.44,2.72,13.16,4.77,19.39,7.96,1.14,.58,2.16-1.14,1.01-1.73h0Z"/>
            <path class="cls-7" d="M259.4,245.26c-.2,1.2-.12,2.44,.34,3.58,.1,.25,.22,.46,.46,.6,.21,.13,.53,.18,.77,.1s.48-.23,.6-.46,.2-.53,.1-.77c-.18-.44-.3-.9-.37-1.37l.04,.27c-.06-.49-.07-.98,0-1.47l-.04,.27c0-.07,.02-.14,.03-.22,.05-.27,.04-.52-.1-.77-.12-.21-.36-.41-.6-.46-.26-.06-.54-.05-.77,.1-.21,.13-.42,.35-.46,.6h0Z"/>
          </g>
          <path class="cls-7" d="M338.96,250c-.04-18.42-5.77-36.6-16.49-51.6s-25.1-25.8-41.91-31.96c-17.5-6.42-36.98-7.11-54.91-2.02s-32.96,15.2-44.37,29.1c-11.52,14.03-18.54,31.39-19.96,49.49s2.97,37.26,12.6,53.11,23.16,27.61,39.44,34.96,36.17,9.78,54.42,6.1c17.71-3.58,34.14-12.72,46.6-25.8s20.76-29.81,23.51-47.62c.7-4.55,1.05-9.15,1.06-13.76,0-1.29-2-1.29-2,0-.04,17.99-5.62,35.65-16.03,50.32-10.13,14.28-24.61,25.37-41.06,31.37-17.14,6.25-36.14,6.94-53.69,1.96s-32.09-14.81-43.28-28.33-18.29-30.92-19.61-48.68c-1.34-18.05,2.95-36.28,12.36-51.76,9.08-14.94,22.65-26.95,38.57-34.17s35.42-9.56,53.2-5.93c17.29,3.53,33.25,12.38,45.44,25.13s20.3,29.1,23.05,46.52c.71,4.48,1.04,9.02,1.05,13.56,0,1.29,2,1.29,2,0Z"/>
        </g>
        <path class="cls-7" d="M238.53,313.14c.26-5.38,2.89-11.5,7.77-14.18,2.97-1.63,6.74-1.81,9.89-.57,2.91,1.15,5.09,3.54,6.55,6.25s2.28,5.56,2.42,8.5c.06,1.28,2.06,1.29,2,0-.29-6.19-3.38-13.21-9.14-16.11-3.36-1.69-7.53-1.93-11.05-.57-3.32,1.28-5.9,3.85-7.62,6.93s-2.66,6.36-2.82,9.75c-.06,1.29,1.94,1.28,2,0h0Z"/>
      </g>
    </g>
  </g>
</svg>