<?xml version="1.0" encoding="UTF-8"?>
<svg id="objects" xmlns="http://www.w3.org/2000/svg" viewBox="0 0 500 500">
  <defs>
    <style>
      .cls-1 {
        fill: #d83830;
      }

      .cls-2 {
        opacity: .7;
      }

      .cls-3 {
        fill: #fff;
      }

      .cls-4 {
        fill: #ef7b7b;
      }

      .cls-5 {
        fill: #ba3735;
      }

      .cls-6 {
        fill: #e09492;
      }
    </style>
  </defs>
  <path class="cls-6" d="M127.62,226.51c0-.15,.02-.3,.02-.45,.04-1.34,.13-2.68,.24-4.01,.03-.3,.05-.6,.08-.9,.14-1.43,.3-2.85,.52-4.26,.03-.2,.07-.39,.1-.59,.21-1.3,.45-2.6,.71-3.88,.05-.22,.09-.43,.13-.65,.31-1.41,.66-2.8,1.04-4.18,.05-.19,.11-.38,.17-.57,.39-1.33,.8-2.65,1.26-3.95,.03-.08,.05-.16,.08-.24,.49-1.38,1.03-2.74,1.6-4.08,.06-.15,.13-.3,.19-.45,1.18-2.71,2.51-5.32,4.01-7.81,.05-.09,.11-.18,.16-.27,1.54-2.55,3.25-4.97,5.11-7.24,.02-.03,.04-.05,.07-.08,8.28-10.1,19.65-17.36,33.58-19.91,24.67-4.52,48.7,6.98,62.03,27.27,5.25-23.69,22.27-42.72,46.93-47.24,33.22-6.09,62.38,17.94,71.6,51.29,0,0,3.16,8.11,2.36,23.9-1.1,21.52-9.17,41.94-22.05,58.74l-22.65,29.64h0l-44.26,57.92-95.01-57.89c-7.87-4.88-15.13-10.73-21.53-17.42-.91-.96-1.81-1.93-2.69-2.92-1.76-1.98-3.44-4.03-5.05-6.14-4.82-6.33-8.93-13.24-12.17-20.64-.4-.91-.77-1.79-1.12-2.65-3.13-7.74-4.35-13.58-4.83-17.03-.32-2.29-.3-3.52-.3-3.52-.14-1.48-.22-2.96-.28-4.44-.01-.34-.03-.68-.03-1.02-.04-1.46-.05-2.91,0-4.35Z"/>
  <path class="cls-1" d="M251.38,183.67c5.25-23.69,22.27-42.72,46.93-47.24,33.22-6.09,62.38,17.94,71.6,51.29,0,0,3.16,8.11,2.36,23.9-1.1,21.52-9.17,41.94-22.05,58.74l-66.92,87.56-95.01-57.89c-18-11.15-32.79-27.38-41.44-47.11-6.35-14.49-6.25-23.19-6.25-23.19-3.19-34.43,15.52-67.25,48.74-73.34,24.67-4.52,48.7,6.98,62.03,27.27h0Zm0,0"/>
  <g class="cls-2">
    <path class="cls-5" d="M169.13,164.37c-1.12,3.21-1.98,6.56-2.45,10.06-2.28,17.02-1.91,32.67,2.67,49.42,4.87,17.77,51.79,90.6,138.42,81.12,6.7-.73,13.27-2.85,19.81-4.95l-44.26,57.92-95.01-57.89c-18-11.15-32.79-27.38-41.44-47.11-6.35-14.49-6.25-23.19-6.25-23.19-2.47-26.64,8.18-52.31,28.52-65.38Z"/>
  </g>
  <circle class="cls-3" cx="317.87" cy="201.51" r="36.52" transform="translate(46.71 462.5) rotate(-76.28)"/>
  <path class="cls-3" d="M238.96,222.51c1.92,20.08-12.8,37.91-32.88,39.83-20.08,1.92-37.91-12.8-39.83-32.88-1.92-20.08,12.8-37.91,32.88-39.83,20.08-1.92,37.91,12.8,39.83,32.88Z"/>
  <path class="cls-4" d="M321.47,243.18c1.21,4.93,11.25,6.7,22.43,3.96,11.18-2.74,19.27-8.95,18.06-13.88s-11.25-6.7-22.43-3.96c-11.18,2.74-19.27,8.95-18.06,13.88Z"/>
  <path class="cls-4" d="M183.1,272.5c1.25,5.12,10.76,7.2,21.23,4.63,10.47-2.56,17.94-8.79,16.68-13.92-1.25-5.12-10.76-7.2-21.23-4.63-10.47,2.56-17.94,8.79-16.68,13.92Z"/>
  <path class="cls-4" d="M326.99,216.57s-40.51-9.41-29.38-32.69c0,0,13.9-15.57,23.39,3.17,0,0-.49-20.76,19.48-10.62,19.97,10.14-13.5,40.14-13.5,40.14Z"/>
  <path class="cls-4" d="M212.45,241.93s-40.51-9.41-29.38-32.69c0,0,13.9-15.57,23.39,3.17,0,0-.49-20.76,19.48-10.62,19.97,10.14-13.5,40.14-13.5,40.14Z"/>
  <path d="M270.41,253.98c3.4-4.64,8.71-9.19,14.96-8.86,5.71,.42,10.66,7.47,7.17,12.66-2.87,4.45-7.87,6.65-12.4,8.82,0,0-1.46-3.3-1.46-3.3,8.84-4.05,23.38-4.27,22.88,8.89-.29,8.55-7.62,11.17-14.91,9.11-2.15-.58-4.19-1.48-6.01-2.68,2.02,.83,4.12,1.36,6.22,1.63,3.78,.49,8.64,.06,10.72-3.38,1.71-2.87,1.45-7.95-.9-10.35-4.42-3.82-11.46-1.85-16.56,.1,0,0-1.46-3.3-1.46-3.3,3.47-1.54,6.88-3.19,9.52-5.43,1.29-1.13,2.26-2.46,2.43-3.81,.36-2.86-2.59-6.23-5.54-6.69-5.5-.7-10.67,2.93-14.66,6.61h0Z"/>
</svg>